<?xml version="1.0" standalone="no"?>
<!DOCTYPE svg PUBLIC "-//W3C//DTD SVG 20010904//EN"
 "http://www.w3.org/TR/2001/REC-SVG-20010904/DTD/svg10.dtd">
<svg version="1.0" xmlns="http://www.w3.org/2000/svg"
 width="832.000000pt" height="684.000000pt" viewBox="0 0 832.000000 684.000000"
 preserveAspectRatio="xMidYMid meet">
<metadata>
Created by potrace 1.15, written by Peter Selinger 2001-2017
</metadata>
<g transform="translate(0.000000,684.000000) scale(0.100000,-0.100000)"
fill="#000000" stroke="none">
<path d="M1220 6774 c-179 -34 -326 -63 -327 -63 -2 -1 -3 -700 -3 -1554 l0
-1553 100 -116 c390 -454 988 -837 1820 -1163 102 -40 195 -76 207 -79 l23 -7
2 466 3 466 200 -526 c110 -290 203 -531 206 -536 14 -23 599 -177 963 -254
309 -65 617 -118 625 -108 4 4 129 324 277 711 l269 703 3 -751 c1 -412 5
-750 10 -750 4 0 45 -5 92 -10 329 -38 797 -69 1125 -76 243 -5 352 -11 343
-19 -2 -2 -178 -9 -391 -16 -297 -9 -470 -9 -740 0 -193 6 -371 14 -394 17
l-43 6 0 -41 c0 -72 66 -387 262 -1243 57 -249 65 -278 83 -278 11 0 419 88
908 196 l887 197 0 1780 c0 1572 -2 1778 -15 1773 -164 -63 -490 -127 -800
-158 -199 -20 -850 -17 -1095 5 -1202 109 -1908 280 -2816 682 -231 103 -972
459 -989 476 -5 5 47 -16 115 -47 629 -282 1217 -506 1680 -639 579 -167 1302
-289 2105 -357 200 -17 813 -17 975 0 335 35 618 101 783 183 l57 29 0 1294
c0 1224 -1 1295 -17 1300 -10 3 -164 32 -343 66 l-325 60 -1003 -224 c-551
-123 -1004 -225 -1006 -227 -1 -2 -164 -431 -360 -954 -197 -522 -360 -953
-364 -957 -4 -4 -168 424 -366 951 -197 528 -361 963 -365 968 -6 10 -1996
444 -2022 442 -8 -1 -160 -30 -339 -65z"/>
<path d="M890 1708 l0 -1313 898 -193 c493 -106 905 -194 916 -195 17 -2 34
69 177 728 l158 730 1 267 0 266 -117 36 c-725 224 -1404 541 -1873 876 -69
49 -133 94 -142 100 -17 10 -18 -54 -18 -1302z"/>
<path d="M3550 1851 c0 -13 172 -464 180 -474 4 -4 136 -41 294 -81 l287 -73
290 72 c160 40 292 75 294 77 5 5 93 232 91 235 -1 1 -58 9 -126 18 -358 46
-780 119 -1123 195 -203 45 -187 43 -187 31z"/>
</g>
</svg>
